<svg xmlns="http://www.w3.org/2000/svg">
    <symbol xmlns="http://www.w3.org/2000/svg" id="fb" viewBox="0 0 8 16">
       <path fill-rule="evenodd" clip-rule="evenodd" d="M5.12005 5.4798V3.96782C5.12005 3.39182 5.48004 3.24782 5.76804 3.24782H7.42406V0.799805H5.12005C2.60005 0.799805 2.60005 2.67181 2.60005 3.82381V5.4798H0.800049V7.9998H2.60005V15.1998H5.12005V7.9998H7.20804L7.49604 5.4798H5.12005Z" />
    </symbol>
	<symbol xmlns="http://www.w3.org/2000/svg" id="twitter" viewBox="0 0 16 13">
		<path fill-rule="evenodd" clip-rule="evenodd" d="M16 1.89746C15.4483 2.13391 14.8177 2.29153 14.1084 2.37035C14.7389 1.97626 15.2906 1.34571 15.5271 0.636346C14.8966 1.03043 14.1872 1.26689 13.4778 1.42452C12.9261 0.793981 12.0591 0.399902 11.1133 0.399902C9.30049 0.399902 7.88178 1.81862 7.88178 3.55261C7.88178 3.78906 7.88177 4.02554 7.96059 4.26199C5.28079 4.10435 2.91626 2.84326 1.26109 0.951636C0.945814 1.42454 0.78818 1.97627 0.78818 2.52799C0.78818 3.63144 1.3399 4.57722 2.2069 5.20776C1.65517 5.20776 1.18226 5.05013 0.709357 4.81368C0.709357 4.81368 0.709357 4.8137 0.709357 4.89252C0.709357 6.46888 1.81281 7.72996 3.31034 8.04523C3.07389 8.12405 2.75862 8.12403 2.44335 8.12403C2.2069 8.12403 2.04926 8.12405 1.81281 8.04523C2.2069 9.30632 3.38916 10.2521 4.80788 10.2521C3.70443 11.1191 2.28572 11.592 0.78818 11.592C0.551727 11.592 0.236456 11.592 2.40533e-06 11.5132C1.41872 12.459 3.15271 12.9319 4.96552 12.9319C10.8768 12.9319 14.1872 8.04524 14.1872 3.8679C14.1872 3.71027 14.1872 3.55263 14.1872 3.47381C15.0542 3.07972 15.6059 2.528 16 1.89746Z"/>
	</symbol>
	<symbol xmlns="http://www.w3.org/2000/svg" id="linkedin" viewBox="0 0 16 16">
		<path d="M14.12 0.799822H1.88005C1.30405 0.799822 0.80005 1.23397 0.80005 1.81286V14.1868C0.80005 14.7657 1.30405 15.1998 1.88005 15.1998H14.12C14.696 15.1998 15.2 14.7657 15.2 14.1868V1.81286C15.2 1.30633 14.696 0.799822 14.12 0.799822ZM5.04805 13.1737H2.88805V6.2993H5.04805V13.1737ZM3.96805 5.28622C3.24805 5.28622 2.74405 4.70736 2.74405 4.0561C2.74405 3.40485 3.32005 2.82594 3.96805 2.82594C4.61605 2.82594 5.19205 3.40485 5.19205 4.0561C5.26405 4.77972 4.68805 5.28622 3.96805 5.28622ZM13.04 13.1737H10.88V9.84505C10.88 9.04907 10.88 8.036 9.80004 8.036C8.72004 8.036 8.50405 8.90435 8.50405 9.84505V13.246H6.34405V6.37165H8.36004V7.31239C8.64804 6.73349 9.36805 6.22696 10.376 6.22696C12.536 6.22696 12.9681 7.67419 12.9681 9.48324V13.1737H13.04Z" />
	</symbol>
	<symbol xmlns="http://www.w3.org/2000/svg" id="search" viewBox="0 0 20 20">
		<path fill-rule="evenodd" clip-rule="evenodd" d="M9 2C5.13401 2 2 5.13401 2 9C2 12.866 5.13401 16 9 16C12.866 16 16 12.866 16 9C16 5.13401 12.866 2 9 2ZM0 9C0 4.02944 4.02944 0 9 0C13.9706 0 18 4.02944 18 9C18 13.9706 13.9706 18 9 18C4.02944 18 0 13.9706 0 9Z" />
		<path fill-rule="evenodd" clip-rule="evenodd" d="M13.9429 13.9429C14.3334 13.5524 14.9666 13.5524 15.3571 13.9429L19.7071 18.2929C20.0976 18.6834 20.0976 19.3166 19.7071 19.7071C19.3166 20.0976 18.6834 20.0976 18.2929 19.7071L13.9429 15.3571C13.5524 14.9666 13.5524 14.3334 13.9429 13.9429Z" />
	</symbol>
	<symbol xmlns="http://www.w3.org/2000/svg" id="heart" viewBox="0 0 23 21">
		<path fill-rule="evenodd" clip-rule="evenodd" d="M13.9131 0.495075C14.702 0.168228 15.5474 0 16.4013 0C17.2551 0 18.1006 0.168229 18.8894 0.495075C19.6781 0.821861 20.3947 1.30081 20.9982 1.90455C21.602 2.5081 22.0813 3.22501 22.408 4.01368C22.7349 4.80249 22.9031 5.64797 22.9031 6.50183C22.9031 7.35568 22.7349 8.20116 22.408 8.98997C22.0812 9.77872 21.6022 10.4953 20.9984 11.0989C20.9983 11.099 20.9985 11.0989 20.9984 11.0989L12.1584 19.9389C11.7679 20.3295 11.1347 20.3295 10.7442 19.9389L1.90418 11.0989C0.684956 9.8797 0 8.22607 0 6.50183C0 4.77758 0.684956 3.12395 1.90418 1.90472C3.12341 0.68549 4.77704 0.000534773 6.50129 0.000534773C8.22554 0.000534773 9.87917 0.68549 11.0984 1.90472L11.4513 2.25761L11.804 1.90488C11.8041 1.90483 11.804 1.90494 11.804 1.90488C12.4076 1.30106 13.1244 0.821892 13.9131 0.495075ZM16.4013 2C15.8102 2 15.2248 2.11647 14.6787 2.34274C14.1326 2.56902 13.6365 2.90068 13.2186 3.31877L12.1584 4.37893C11.7679 4.76946 11.1347 4.76946 10.7442 4.37893L9.68418 3.31893C8.84003 2.47478 7.69511 2.00053 6.50129 2.00053C5.30747 2.00053 4.16255 2.47478 3.3184 3.31893C2.47424 4.16309 2 5.30801 2 6.50183C2 7.69564 2.47424 8.84056 3.3184 9.68472L11.4513 17.8176L19.5842 9.68472C20.0023 9.26683 20.3341 8.77049 20.5604 8.22439C20.7866 7.67828 20.9031 7.09295 20.9031 6.50183C20.9031 5.9107 20.7866 5.32537 20.5604 4.77926C20.3341 4.23316 20.0024 3.73699 19.5843 3.3191C19.1665 2.90101 18.67 2.56902 18.1239 2.34274C17.5778 2.11647 16.9924 2 16.4013 2Z"/>
	</symbol>
	<symbol xmlns="http://www.w3.org/2000/svg" id="basket" viewBox="0 0 20 22">
		<path fill-rule="evenodd" clip-rule="evenodd" d="M3.2 0.4C3.38885 0.148194 3.68524 0 4 0H16C16.3148 0 16.6111 0.148194 16.8 0.4L19.8 4.4C19.9298 4.5731 20 4.78363 20 5V19C20 19.7957 19.6839 20.5587 19.1213 21.1213C18.5587 21.6839 17.7957 22 17 22H3C2.20435 22 1.44129 21.6839 0.87868 21.1213C0.31607 20.5587 0 19.7957 0 19V5C0 4.78363 0.0701779 4.5731 0.2 4.4L3.2 0.4ZM4.5 2L2 5.33333V19C2 19.2652 2.10536 19.5196 2.29289 19.7071C2.48043 19.8946 2.73478 20 3 20H17C17.2652 20 17.5196 19.8946 17.7071 19.7071C17.8946 19.5196 18 19.2652 18 19V5.33333L15.5 2H4.5Z" />
		<path fill-rule="evenodd" clip-rule="evenodd" d="M0 5C0 4.44772 0.447715 4 1 4H19C19.5523 4 20 4.44772 20 5C20 5.55228 19.5523 6 19 6H1C0.447715 6 0 5.55228 0 5Z" />
		<path fill-rule="evenodd" clip-rule="evenodd" d="M6 8C6.55228 8 7 8.44771 7 9C7 9.79565 7.31607 10.5587 7.87868 11.1213C8.44129 11.6839 9.20435 12 10 12C10.7956 12 11.5587 11.6839 12.1213 11.1213C12.6839 10.5587 13 9.79565 13 9C13 8.44771 13.4477 8 14 8C14.5523 8 15 8.44771 15 9C15 10.3261 14.4732 11.5979 13.5355 12.5355C12.5979 13.4732 11.3261 14 10 14C8.67392 14 7.40215 13.4732 6.46447 12.5355C5.52678 11.5979 5 10.3261 5 9C5 8.44771 5.44772 8 6 8Z" />
	</symbol>
	<symbol xmlns="http://www.w3.org/2000/svg" id="person" viewBox="0 0 24 24">
		<path fill-rule="evenodd" clip-rule="evenodd" d="M4.46447 15.4645C5.40215 14.5268 6.67392 14 8 14H16C17.3261 14 18.5979 14.5268 19.5355 15.4645C20.4732 16.4021 21 17.6739 21 19V21C21 21.5523 20.5523 22 20 22C19.4477 22 19 21.5523 19 21V19C19 18.2044 18.6839 17.4413 18.1213 16.8787C17.5587 16.3161 16.7956 16 16 16H8C7.20435 16 6.44129 16.3161 5.87868 16.8787C5.31607 17.4413 5 18.2044 5 19V21C5 21.5523 4.55228 22 4 22C3.44772 22 3 21.5523 3 21V19C3 17.6739 3.52678 16.4021 4.46447 15.4645Z"/>
		<path fill-rule="evenodd" clip-rule="evenodd" d="M12 4C10.3431 4 9 5.34315 9 7C9 8.65685 10.3431 10 12 10C13.6569 10 15 8.65685 15 7C15 5.34315 13.6569 4 12 4ZM7 7C7 4.23858 9.23858 2 12 2C14.7614 2 17 4.23858 17 7C17 9.76142 14.7614 12 12 12C9.23858 12 7 9.76142 7 7Z" />
	</symbol>
	<symbol xmlns="http://www.w3.org/2000/svg" id="dropdown" viewBox="0 0 11 7">
		<path d="M9.85975 1.54027C10.0597 1.35027 10.0597 1.04027 9.85975 0.860273L9.13978 0.180281C8.93978 -0.00971924 8.61975 -0.00971924 8.42975 0.180281L5.02976 3.47026L1.59977 0.150312C1.39977 -0.0396875 1.07977 -0.0396875 0.879767 0.150312L0.159766 0.830305C-0.0402344 1.02031 -0.0402344 1.3203 0.159766 1.5103L4.66978 5.86027C4.86978 6.05027 5.18978 6.05027 5.38978 5.86027L9.85975 1.54027Z"/>
	</symbol>
	<symbol xmlns="http://www.w3.org/2000/svg" id="transport" viewBox="0 0 40 40">
		<path d="M39.9527 2.98621C39.866 1.3973 38.6023 0.133784 37.0134 0.0470656C33.8073 -0.128091 27.5336 0.0423001 21.5345 3.14519C18.4763 4.72707 15.242 7.40902 12.6608 10.5034C12.629 10.5415 12.598 10.5799 12.5665 10.6181L6.70867 11.0706C5.74445 11.1451 4.88563 11.6505 4.35234 12.4571L0.355938 18.5018C-0.0485157 19.1135 -0.112813 19.879 0.183828 20.5496C0.480547 21.2202 1.09023 21.6875 1.81484 21.7998L6.75008 22.5642C6.73266 22.6601 6.71516 22.756 6.69914 22.8519C6.53484 23.8347 6.86047 24.8452 7.57031 25.555L14.4447 32.4294C15.0332 33.0179 15.8284 33.3424 16.6433 33.3424C16.8111 33.3424 16.9798 33.3285 17.1478 33.3005C17.2438 33.2845 17.3396 33.267 17.4355 33.2496L18.1999 38.1849C18.3122 38.9095 18.7795 39.5193 19.45 39.8159C19.729 39.9393 20.0242 40.0003 20.3181 40.0003C20.7309 40.0002 21.1407 39.88 21.4979 39.6439L27.5426 35.6474C28.3492 35.114 28.8545 34.2552 28.9289 33.291L29.3814 27.4333C29.4196 27.4018 29.458 27.3708 29.4962 27.339C32.5906 24.7578 35.2727 21.5235 36.8545 18.4652C39.9575 12.4659 40.1276 6.19207 39.9527 2.98621ZM26.25 33.6922L20.4679 37.5151L19.7229 32.7053C22.1666 31.9868 24.5841 30.8361 26.8871 29.2944L26.5923 33.1104C26.574 33.3485 26.4491 33.5606 26.25 33.6922ZM16.102 30.7721L9.2275 23.8977C9.05211 23.7222 8.97102 23.4757 9.01078 23.2383C9.21516 22.0162 9.53274 20.8528 9.92586 19.7569L20.2405 30.0716C18.9243 30.5431 17.7453 30.8243 16.7613 30.9889C16.5235 31.0284 16.2773 30.9475 16.102 30.7721ZM6.88922 13.4074L10.7052 13.1126C9.16344 15.4157 8.01266 17.8331 7.29414 20.2768L2.48445 19.5319L6.30742 13.7497C6.43914 13.5505 6.65125 13.4257 6.88922 13.4074ZM27.9951 25.5391C26.1019 27.1182 24.2641 28.2604 22.5702 29.0869L10.9123 17.429C11.995 15.2178 13.3163 13.3764 14.4605 12.0047C16.8492 9.14105 19.8201 6.67066 22.6114 5.22691C28.1172 2.37902 33.918 2.22566 36.8859 2.38722C37.2787 2.40863 37.5911 2.72105 37.6125 3.11394C37.7743 6.08175 37.6206 11.8825 34.7727 17.3884C33.3291 20.1796 30.8587 23.1504 27.9951 25.5391Z" />
		<path d="M27.4002 18.4565C28.9004 18.4563 30.4012 17.8853 31.5433 16.7431C32.65 15.6365 33.2594 14.1651 33.2594 12.6001C33.2594 11.0351 32.6499 9.56369 31.5433 8.45705C29.2588 6.17244 25.5416 6.1726 23.2572 8.45705C22.1505 9.56369 21.541 11.0351 21.541 12.6001C21.541 14.1651 22.1505 15.6365 23.2572 16.7431C24.3995 17.8855 25.8995 18.4567 27.4002 18.4565ZM24.9143 10.1142C25.5996 9.42885 26.4998 9.08619 27.4001 9.08619C28.3004 9.08619 29.2006 9.42885 29.8859 10.1142C30.5499 10.7782 30.9155 11.661 30.9155 12.6C30.9155 13.539 30.5499 14.4219 29.8859 15.0859C28.5153 16.4566 26.2849 16.4565 24.9142 15.0859C24.2502 14.4219 23.8845 13.5391 23.8845 12.6001C23.8845 11.6611 24.2503 10.7782 24.9143 10.1142Z" />
		<path d="M1.19527 32.9639C1.4952 32.9639 1.79512 32.8495 2.02387 32.6206L5.84988 28.7946C6.30754 28.3369 6.30754 27.595 5.84988 27.1373C5.3923 26.6797 4.65027 26.6797 4.19262 27.1373L0.36668 30.9633C-0.0909766 31.421 -0.0909766 32.1629 0.36668 32.6206C0.59543 32.8494 0.895352 32.9639 1.19527 32.9639Z" />
		<path d="M9.35629 30.6438C8.89871 30.1861 8.15668 30.1861 7.69902 30.6438L0.343242 37.9996C-0.114414 38.4573 -0.114414 39.1993 0.343242 39.6569C0.57207 39.8857 0.871914 40.0001 1.17184 40.0001C1.47176 40.0001 1.77168 39.8857 2.00043 39.6568L9.35621 32.301C9.81394 31.8434 9.81394 31.1014 9.35629 30.6438Z" />
		<path d="M11.2054 34.15L7.37937 37.976C6.92172 38.4337 6.92172 39.1756 7.37937 39.6333C7.6082 39.8621 7.90812 39.9766 8.20797 39.9766C8.50781 39.9766 8.80781 39.8622 9.03656 39.6333L12.8626 35.8073C13.3202 35.3496 13.3202 34.6077 12.8626 34.15C12.405 33.6923 11.663 33.6923 11.2054 34.15Z" />
	</symbol>
	<symbol xmlns="http://www.w3.org/2000/svg" id="phone" viewBox="0 0 40 40">
		<path d="M37.0352 29.5134L32.0624 24.5408C30.6881 23.1665 28.4639 23.1664 27.0895 24.5408L24.8291 26.8012C23.7879 27.8423 22.103 27.8423 21.0618 26.8012C21.0613 26.8007 21.0608 26.8002 21.0604 26.7998L13.1994 18.9652C12.1584 17.9241 12.1582 16.2391 13.1994 15.1978L15.4598 12.9374C16.834 11.5632 16.8341 9.33894 15.4598 7.96457L10.4869 2.99169C9.11258 1.61739 6.88836 1.61732 5.51407 2.99169C5.50759 2.99817 3.8565 4.64926 3.8565 4.64926C-0.979902 9.11363 -1.52904 17.4975 3.70665 22.7331L17.2945 36.2947C22.0294 41.0295 30.0343 41.4872 35.3774 36.1442C35.3774 36.1442 35.3777 36.1439 35.3778 36.1438L37.0352 34.4864C38.4063 33.1153 38.4063 30.8845 37.0352 29.5134ZM7.17188 4.64942C7.62883 4.19247 8.37242 4.19239 8.82945 4.64942L13.8023 9.6223C14.2604 10.0803 14.2604 10.8218 13.8023 11.2799L12.9735 12.1087L6.34305 5.47825L7.17188 4.64942ZM18.9513 34.6363L5.36352 21.0749C1.5622 17.2735 1.34728 11.2239 4.71712 7.16754L11.3237 13.7742C9.59281 15.7363 9.65375 18.7345 11.5433 20.6242L19.4042 28.4587C21.2828 30.3373 24.2813 30.416 26.2528 28.6769L32.8599 35.284C28.8199 38.6473 22.7821 38.467 18.9513 34.6363ZM35.3777 32.8288L34.5489 33.6576L27.9184 27.0272L28.7472 26.1984C29.2053 25.7403 29.9466 25.7403 30.4048 26.1984L35.3777 31.1712C35.8347 31.6282 35.8347 32.3719 35.3777 32.8288Z" />
		<path d="M36.4835 0.000610352H22.4182C20.4793 0.000610352 18.9019 1.57803 18.9019 3.51693V12.8938C18.9019 14.8327 20.4793 16.4101 22.4182 16.4101H23.5903V19.9264C23.5903 20.9676 24.8554 21.491 25.5911 20.7553L29.9363 16.4101H36.4835C38.4224 16.4101 39.9998 14.8327 39.9998 12.8938V3.51701C39.9999 1.57811 38.4224 0.000610352 36.4835 0.000610352ZM37.6556 12.8939C37.6556 13.5402 37.1299 14.066 36.4835 14.066H29.4509C29.14 14.066 28.8419 14.1894 28.6222 14.4093L25.9346 17.0968V15.2381C25.9346 14.5907 25.4098 14.066 24.7625 14.066H22.4183C21.7719 14.066 21.2461 13.5402 21.2461 12.8939V3.51701C21.2461 2.87068 21.7719 2.3449 22.4183 2.3449H36.4836C37.1299 2.3449 37.6557 2.87068 37.6557 3.51701V12.8939H37.6556Z"/>
		<path d="M34.1395 4.68909H24.7627C24.1153 4.68909 23.5906 5.21385 23.5906 5.86119C23.5906 6.50853 24.1153 7.0333 24.7627 7.0333H34.1395C34.7869 7.0333 35.3116 6.50853 35.3116 5.86119C35.3116 5.21385 34.7869 4.68909 34.1395 4.68909Z"/>
		<path d="M29.4511 9.37744H24.7627C24.1153 9.37744 23.5906 9.90221 23.5906 10.5495C23.5906 11.1969 24.1153 11.7217 24.7627 11.7217H29.4511C30.0985 11.7217 30.6232 11.1969 30.6232 10.5495C30.6232 9.90221 30.0984 9.37744 29.4511 9.37744Z"/>
	</symbol>
	<symbol xmlns="http://www.w3.org/2000/svg" id="tools" viewBox="0 0 40 40">
		<path d="M38.9269 8.51271C38.9269 8.00526 38.6204 7.54801 38.1511 7.35514L20.4755 0.0938574C20.1708 -0.0312858 19.8292 -0.0312858 19.5244 0.0938574L1.84889 7.35514C1.37952 7.54794 1.073 8.00526 1.073 8.51271V31.4873C1.073 31.9947 1.37944 32.452 1.84889 32.6449L19.5244 39.9061C19.8259 40.03 20.1647 40.0326 20.474 39.9061C20.489 39.9011 19.8198 40.1755 38.1511 32.6449C38.6205 32.4521 38.9269 31.9947 38.9269 31.4873V8.51271ZM20 14.5263L13.4872 11.8508L27.562 5.71091L34.5103 8.56535L20 14.5263ZM3.57586 10.485L9.19487 12.7933V19.3058C9.19487 19.9969 9.7552 20.5572 10.4463 20.5572C11.1374 20.5572 11.6977 19.9969 11.6977 19.3058V13.8215L18.7485 16.718V36.8815L3.57586 30.6484V10.485ZM20 2.60431L24.3382 4.3865L10.2634 10.5264L5.48961 8.56527L20 2.60431ZM21.2514 16.718L36.4241 10.485V30.6484L21.2514 36.8815V16.718Z"/>
	</symbol>
	<symbol xmlns="http://www.w3.org/2000/svg" id="bisiness" viewBox="0 0 45 45">
		<path d="M9.22852 25.2246C9.95663 25.2246 10.5469 24.6344 10.5469 23.9062C10.5469 23.1781 9.95663 22.5879 9.22852 22.5879C8.50041 22.5879 7.91016 23.1781 7.91016 23.9062C7.91016 24.6344 8.50041 25.2246 9.22852 25.2246Z"/>
		<path d="M23.9062 0C20.9985 0 18.6328 2.36566 18.6328 5.27344C18.6328 8.18121 20.9985 10.5469 23.9062 10.5469C26.814 10.5469 29.1797 8.18121 29.1797 5.27344C29.1797 2.36566 26.814 0 23.9062 0ZM23.9062 7.91016C22.4524 7.91016 21.2695 6.72732 21.2695 5.27344C21.2695 3.81955 22.4524 2.63672 23.9062 2.63672C25.3601 2.63672 26.543 3.81955 26.543 5.27344C26.543 6.72732 25.3601 7.91016 23.9062 7.91016Z"/>
		<path d="M43.6816 18.6328C42.9536 18.6328 42.3633 19.2231 42.3633 19.9512V21.2695C42.3633 22.1506 41.9255 22.9701 41.1922 23.4619C40.8224 23.7099 40.1128 24.0445 39.1617 23.8496C37.4172 17.7983 31.8298 13.3594 25.2246 13.3594L16.416 13.3769C16.0494 13.3769 15.7045 13.2066 15.4697 12.9405C14.2262 11.5311 12.432 10.7227 10.5469 10.7227H6.5918C6.18741 10.7227 5.80535 10.9083 5.55539 11.2262C5.30543 11.5441 5.21525 11.9591 5.31062 12.3521L6.64567 17.8506C5.67009 18.8712 4.85692 20.0164 4.21778 21.2696H3.95508C1.77425 21.2696 0 23.0439 0 25.2247V29.1322C0 30.4152 0.625605 31.6229 1.67361 32.3629L3.99876 34.0049C4.81465 35.75 5.9545 37.294 7.39099 38.5987C7.58487 38.7749 7.91016 39.1447 7.91016 39.6431V42.7518C7.91016 43.9915 8.9187 45 10.1584 45H14.8904C16.1301 45 17.1387 43.9915 17.1387 42.7518V42.3633H25.2246V42.7518C25.2246 43.9915 26.2332 45 27.4729 45H32.2049C33.4445 45 34.4531 43.9915 34.4531 42.7518V40.7568C34.4531 39.7346 34.8666 38.7468 35.6176 37.9754C37.0788 36.4742 38.2167 34.6411 38.9083 32.6744C39.4513 31.1306 39.7266 29.5112 39.7266 27.8614C39.7266 27.4169 39.7054 26.9773 39.666 26.5429C39.6885 26.5431 39.7111 26.5446 39.7336 26.5446C40.7692 26.5446 41.7776 26.2441 42.6607 25.6519C44.1255 24.6696 45 23.0314 45 21.2695V19.9512C45 19.2231 44.4097 18.6328 43.6816 18.6328ZM36.421 31.7996C35.8554 33.4078 34.9243 34.9074 33.7281 36.1363C32.4954 37.4028 31.8164 39.0437 31.8164 40.7568V42.3633H27.8613C27.8613 40.9264 27.8613 39.8651 27.8613 38.4082C27.8613 37.6801 27.2711 37.0898 26.543 37.0898C25.8149 37.0898 25.2246 37.6801 25.2246 38.4082V39.7266H17.1387V38.4082C17.1387 37.6801 16.5484 37.0898 15.8203 37.0898C15.0922 37.0898 14.502 37.6801 14.502 38.4082C14.502 40.7387 14.502 40.8787 14.502 42.3633H10.5469V39.6431C10.5469 38.5211 10.0557 37.4571 9.16383 36.6471C7.92888 35.5253 6.92481 34.1283 6.26019 32.607C6.16386 32.3866 6.00908 32.1967 5.81256 32.0579L3.19456 30.2092C2.84528 29.9624 2.63672 29.5598 2.63672 29.1321V25.2246C2.63672 24.4977 3.22813 23.9062 3.95508 23.9062C5.01047 23.9062 5.3296 23.9422 5.63537 23.7702C5.82741 23.6934 6.11288 23.4506 6.25887 23.1186C6.25931 23.1176 6.25975 23.1167 6.2601 23.1158L6.2615 23.1125C6.90328 21.6447 7.82183 20.3403 8.99174 19.235L9.00598 19.2215C9.0189 19.2093 9.03164 19.1968 9.04412 19.1841C9.37512 18.8466 9.49298 18.3661 9.37714 17.9253L8.26857 13.3594H10.5469C11.6757 13.3594 12.7493 13.8425 13.4924 14.6849C14.2276 15.5181 15.2931 15.996 16.4159 15.996L25.2246 15.9785C31.7671 15.9785 37.0898 21.3188 37.0898 27.8613C37.0898 29.2125 36.8648 30.5375 36.421 31.7996Z"/>
		<path d="M25.2247 18.6328H19.0532C18.3251 18.6328 17.7349 19.2231 17.7349 19.9512C17.7349 20.6793 18.3251 21.2695 19.0532 21.2695H25.2247C25.9528 21.2695 26.5431 20.6793 26.5431 19.9512C26.5431 19.2231 25.9528 18.6328 25.2247 18.6328Z"/>
	</symbol>
	<symbol xmlns="http://www.w3.org/2000/svg" id="send" viewBox="0 0 22 22">
		<path fill-rule="evenodd" clip-rule="evenodd" d="M21.7071 0.292921C22.0976 0.683445 22.0976 1.31661 21.7071 1.70713L10.7071 12.7071C10.3166 13.0977 9.68342 13.0977 9.2929 12.7071C8.90237 12.3166 8.90237 11.6834 9.2929 11.2929L20.2929 0.292921C20.6834 -0.0976032 21.3166 -0.0976032 21.7071 0.292921Z" fill="white"/>
		<path fill-rule="evenodd" clip-rule="evenodd" d="M21.7071 0.292921C21.9787 0.564559 22.0708 0.967791 21.9439 1.33038L14.9439 21.3304C14.8084 21.7174 14.4504 21.9825 14.0408 21.9992C13.6311 22.0159 13.2527 21.7808 13.0862 21.4062L9.2424 12.7576L0.593867 8.91384C0.219186 8.74731 -0.0158775 8.36894 0.000836285 7.95926C0.0175501 7.54959 0.282654 7.19162 0.669655 7.05617L20.6697 0.0561695C21.0322 -0.0707359 21.4355 0.0212832 21.7071 0.292921ZM3.71108 8.11063L10.4061 11.0862C10.6324 11.1868 10.8133 11.3677 10.9138 11.5939L13.8894 18.289L19.37 2.63L3.71108 8.11063Z" fill="white"/>
	</symbol>
	<symbol xmlns="http://www.w3.org/2000/svg" id="arrow" viewBox="0 0 16 16">
		<path fill-rule="evenodd" clip-rule="evenodd" d="M1 8.99997H12.17L7.29 13.88C6.9 14.27 6.9 14.91 7.29 15.3C7.68 15.69 8.31 15.69 8.7 15.3L15.29 8.70997C15.68 8.31997 15.68 7.68997 15.29 7.29997L8.71 0.699971C8.32 0.309971 7.69 0.309971 7.3 0.699971C6.91 1.08997 6.91 1.71997 7.3 2.10997L12.17 6.99997H1C0.45 6.99997 0 7.44997 0 7.99997C0 8.54997 0.45 8.99997 1 8.99997Z"/>
	</symbol>
	<symbol xmlns="http://www.w3.org/2000/svg" id="arrow-prev" viewBox="0 0 16 16">
		<path fill-rule="evenodd" clip-rule="evenodd" d="M15 7.00003L3.83 7.00003L8.71 2.12003C9.1 1.73003 9.1 1.09003 8.71 0.700029C8.32 0.310028 7.69 0.310028 7.3 0.700029L0.710001 7.29003C0.32 7.68003 0.32 8.31003 0.710001 8.70003L7.29 15.3C7.68 15.69 8.31 15.69 8.7 15.3C9.09 14.91 9.09 14.28 8.7 13.89L3.83 9.00003L15 9.00003C15.55 9.00003 16 8.55003 16 8.00003C16 7.45003 15.55 7.00003 15 7.00003Z"/>
	</symbol>
	<symbol xmlns="http://www.w3.org/2000/svg" id="filter" viewBox="0 0 18 18">
		<path fill-rule="evenodd" clip-rule="evenodd" d="M0 15C0 15.55 0.45 16 1 16H6V14H1C0.45 14 0 14.45 0 15ZM0 3C0 3.55 0.45 4 1 4H10V2H1C0.45 2 0 2.45 0 3ZM10 17V16H17C17.55 16 18 15.55 18 15C18 14.45 17.55 14 17 14H10V13C10 12.45 9.55 12 9 12C8.45 12 8 12.45 8 13V17C8 17.55 8.45 18 9 18C9.55 18 10 17.55 10 17ZM4 7V8H1C0.45 8 0 8.45 0 9C0 9.55 0.45 10 1 10H4V11C4 11.55 4.45 12 5 12C5.55 12 6 11.55 6 11V7C6 6.45 5.55 6 5 6C4.45 6 4 6.45 4 7ZM18 9C18 8.45 17.55 8 17 8H8V10H17C17.55 10 18 9.55 18 9ZM13 6C13.55 6 14 5.55 14 5V4H17C17.55 4 18 3.55 18 3C18 2.45 17.55 2 17 2H14V1C14 0.45 13.55 0 13 0C12.45 0 12 0.45 12 1V5C12 5.55 12.45 6 13 6Z"/>
	</symbol>
	<symbol xmlns="http://www.w3.org/2000/svg" id="error" viewBox="0 0 161 256">
		<path d="M101.274 239.639C98.7116 238.611 95.7996 239.856 94.7721 242.42C93.9136 244.561 91.7366 246 89.3556 246H71.0896C68.7086 246 66.5316 244.561 65.6731 242.42C64.6456 239.856 61.7351 238.614 59.1716 239.639C56.6086 240.667 55.3636 243.577 56.3911 246.14C58.7926 252.13 64.5616 256 71.0896 256H89.3556C95.8836 256 101.653 252.13 104.054 246.14C105.082 243.577 103.837 240.667 101.274 239.639Z" fill="#B1B8CB"/>
<path d="M159.993 213.881C158.635 206.879 154.321 200.817 148.155 197.237C149.276 196.321 150.328 195.308 151.288 194.193C156.024 188.691 158.121 181.419 157.04 174.241C155.286 162.579 150.322 151.683 142.687 142.729C136.97 136.025 129.943 130.624 122.078 126.827C131.703 116.561 137.607 102.765 137.607 87.616C137.606 61.399 119.933 39.2315 95.8741 32.402C99.1511 28.4895 100.939 23.6015 100.939 18.4365C100.94 8.2705 92.6686 0 82.5031 0C82.5026 0 82.5021 0 82.5016 0C78.3981 0 74.5546 1.3345 71.6801 3.757C68.5031 6.434 66.7536 10.1965 66.7531 14.351C66.7531 17.112 68.9916 19.351 71.7531 19.351C74.5141 19.351 76.7531 17.1125 76.7531 14.351C76.7531 13.1615 77.2141 12.17 78.1241 11.403C79.1981 10.498 80.7526 9.9995 82.5021 9.9995H82.5026C87.1546 9.9995 90.9396 13.7835 90.9396 18.4355C90.9396 21.5865 89.7126 24.5485 87.4846 26.7765C85.2566 29.004 82.2951 30.231 79.1451 30.231C79.1446 30.231 79.1446 30.231 79.1441 30.231C79.0216 30.231 78.9016 30.2405 78.7816 30.2495C47.8036 31.0175 22.8391 56.456 22.8386 87.6155C22.8386 102.765 28.7426 116.56 38.3671 126.827C30.5031 130.623 23.4761 136.025 17.7591 142.729C10.1236 151.682 5.16008 162.579 3.40508 174.24C2.32508 181.418 4.42158 188.691 9.15708 194.192C10.1171 195.307 11.1691 196.321 12.2906 197.236C6.12408 200.816 1.80958 206.878 0.452077 213.88C-0.909424 220.9 0.837577 228.157 5.24408 233.788L15.9516 247.471C20.2776 252.999 26.8491 255.971 33.5146 255.971C37.2986 255.971 41.1136 255.013 44.5646 253.021C54.0951 247.518 58.1791 235.673 54.0646 225.467L47.5691 209.352C47.1351 208.276 46.6221 207.243 46.0496 206.251H82.7226C85.4841 206.251 87.7226 204.012 87.7226 201.251C87.7226 198.49 85.4841 196.251 82.7226 196.251H36.5446V185.711C36.5446 184.354 37.6486 183.249 39.0061 183.249H121.44C122.797 183.249 123.901 184.354 123.901 185.711V196.943C118.94 199.662 115.024 204.024 112.876 209.352L106.38 225.466C102.266 235.673 106.35 247.518 115.88 253.021C119.332 255.013 123.145 255.971 126.93 255.971C133.595 255.971 140.168 252.998 144.494 247.471L155.201 233.788C159.608 228.157 161.355 220.901 159.993 213.881ZM32.8381 87.616C32.8386 61.4885 54.0956 40.232 80.2226 40.2315C106.35 40.232 127.607 61.4885 127.607 87.616C127.607 113.743 106.351 135 80.2226 135.001C54.0951 135 32.8381 113.743 32.8381 87.616ZM38.2956 213.092L44.7911 229.206C47.0536 234.819 44.8066 241.335 39.5651 244.361C34.3241 247.388 27.5576 246.077 23.8271 241.309L13.1196 227.626C10.4981 224.277 9.45908 219.961 10.2691 215.785C11.0791 211.609 13.6566 207.994 17.3406 205.867C21.0241 203.74 25.4436 203.316 29.4651 204.702C33.4866 206.089 36.7051 209.147 38.2956 213.092ZM121.473 163.25C118.711 163.25 116.473 165.489 116.473 168.25V173.25H44.0056V168.25C44.0056 165.489 41.7671 163.25 39.0056 163.25C36.2441 163.25 34.0056 165.489 34.0056 168.25V174.301C29.6171 176.231 26.5441 180.618 26.5441 185.712V192.772C22.7576 192.394 19.2441 190.583 16.7356 187.669C13.9021 184.376 12.6476 180.024 13.2936 175.729C16.1561 156.702 28.8421 140.982 46.6516 134.126C56.0976 140.963 67.6966 145 80.2226 145C92.7486 145 104.348 140.963 113.794 134.126C131.603 140.982 144.289 156.702 147.152 175.729C147.798 180.024 146.543 184.376 143.709 187.669C141.201 190.583 137.687 192.394 133.901 192.772V185.712C133.901 180.631 130.843 176.254 126.473 174.316V168.25C126.473 165.489 124.234 163.25 121.473 163.25ZM147.326 227.626L136.619 241.309C132.888 246.075 126.123 247.387 120.881 244.361C115.639 241.334 113.392 234.819 115.655 229.204L122.151 213.09C123.741 209.145 126.96 206.088 130.981 204.701C132.539 204.165 134.156 203.899 135.767 203.899C138.315 203.899 140.849 204.564 143.106 205.867C146.79 207.993 149.367 211.609 150.177 215.785C150.986 219.96 149.947 224.277 147.326 227.626Z" fill="#B1B8CB"/>
<path d="M106.118 197.715C105.188 196.785 103.898 196.25 102.583 196.25C101.268 196.25 99.9775 196.784 99.0475 197.715C98.1175 198.645 97.5825 199.935 97.5825 201.25C97.5825 202.57 98.1175 203.855 99.0475 204.785C99.9775 205.72 101.268 206.25 102.583 206.25C103.898 206.25 105.188 205.72 106.118 204.785C107.048 203.855 107.583 202.565 107.583 201.25C107.583 199.935 107.048 198.645 106.118 197.715Z" fill="#B1B8CB"/>
<path d="M94.0075 104.691C91.8625 102.952 88.714 103.283 86.975 105.427C85.3135 107.477 82.852 108.652 80.2225 108.652C77.593 108.652 75.131 107.477 73.47 105.427C71.7315 103.282 68.583 102.953 66.4375 104.691C64.292 106.43 63.9625 109.578 65.7015 111.724C69.2705 116.127 74.5635 118.652 80.2225 118.652C85.8815 118.652 91.175 116.127 94.7435 111.724C96.4825 109.578 96.153 106.43 94.0075 104.691Z" fill="#B1B8CB"/>
<path d="M67.5879 84.0801C63.0524 79.5446 55.6724 79.5446 51.1359 84.0801C49.1834 86.0326 49.1829 89.1981 51.1359 91.1511C53.0884 93.1041 56.2544 93.1041 58.2069 91.1516C58.8434 90.5151 59.88 90.5151 60.517 91.1516C61.4935 92.1276 62.7729 92.6161 64.0524 92.6161C65.3319 92.6161 66.6119 92.1276 67.5879 91.1516C69.5404 89.1991 69.5404 86.0331 67.5879 84.0801Z" fill="#B1B8CB"/>
<path d="M109.309 84.0795C104.773 79.5445 97.3925 79.5445 92.857 84.0795C90.9045 86.032 90.9045 89.198 92.857 91.151C93.833 92.1275 95.1129 92.6155 96.3924 92.6155C97.6719 92.6155 98.952 92.127 99.928 91.151C100.564 90.515 101.601 90.514 102.238 91.151C104.19 93.104 107.356 93.1035 109.309 91.1505C111.261 89.198 111.261 86.0325 109.309 84.0795Z" fill="#B1B8CB"/>
	</symbol>
	<symbol xmlns="http://www.w3.org/2000/svg" id="o" viewBox="0 0 1800 30">
		<path fill-rule="evenodd" clip-rule="evenodd" d="M-81 30C-72.7157 30 -66 23.2843 -66 15C-66 6.71573 -72.7157 0 -81 0C-89.2843 0 -96 6.71573 -96 15C-96 23.2843 -89.2843 30 -81 30ZM-1 30C7.28427 30 14 23.2843 14 15C14 6.71573 7.28427 0 -1 0C-9.28427 0 -16 6.71573 -16 15C-16 23.2843 -9.28427 30 -1 30ZM94 15C94 23.2843 87.2843 30 79 30C70.7157 30 64 23.2843 64 15C64 6.71573 70.7157 0 79 0C87.2843 0 94 6.71573 94 15ZM159 30C167.284 30 174 23.2843 174 15C174 6.71573 167.284 0 159 0C150.716 0 144 6.71573 144 15C144 23.2843 150.716 30 159 30ZM254 15C254 23.2843 247.284 30 239 30C230.716 30 224 23.2843 224 15C224 6.71573 230.716 0 239 0C247.284 0 254 6.71573 254 15ZM-41 30C-32.7157 30 -26 23.2843 -26 15C-26 6.71573 -32.7157 0 -41 0C-49.2843 0 -56 6.71573 -56 15C-56 23.2843 -49.2843 30 -41 30ZM54 15C54 23.2843 47.2843 30 39 30C30.7157 30 24 23.2843 24 15C24 6.71573 30.7157 0 39 0C47.2843 0 54 6.71573 54 15ZM119 30C127.284 30 134 23.2843 134 15C134 6.71573 127.284 0 119 0C110.716 0 104 6.71573 104 15C104 23.2843 110.716 30 119 30ZM214 15C214 23.2843 207.284 30 199 30C190.716 30 184 23.2843 184 15C184 6.71573 190.716 0 199 0C207.284 0 214 6.71573 214 15ZM279 30C287.284 30 294 23.2843 294 15C294 6.71573 287.284 0 279 0C270.716 0 264 6.71573 264 15C264 23.2843 270.716 30 279 30ZM320 30C328.284 30 335 23.2843 335 15C335 6.71573 328.284 0 320 0C311.716 0 305 6.71573 305 15C305 23.2843 311.716 30 320 30ZM400 30C408.284 30 415 23.2843 415 15C415 6.71573 408.284 0 400 0C391.716 0 385 6.71573 385 15C385 23.2843 391.716 30 400 30ZM495 15C495 23.2843 488.284 30 480 30C471.716 30 465 23.2843 465 15C465 6.71573 471.716 0 480 0C488.284 0 495 6.71573 495 15ZM560 30C568.284 30 575 23.2843 575 15C575 6.71573 568.284 0 560 0C551.716 0 545 6.71573 545 15C545 23.2843 551.716 30 560 30ZM655 15C655 23.2843 648.284 30 640 30C631.716 30 625 23.2843 625 15C625 6.71573 631.716 0 640 0C648.284 0 655 6.71573 655 15ZM360 30C368.284 30 375 23.2843 375 15C375 6.71573 368.284 0 360 0C351.716 0 345 6.71573 345 15C345 23.2843 351.716 30 360 30ZM455 15C455 23.2843 448.284 30 440 30C431.716 30 425 23.2843 425 15C425 6.71573 431.716 0 440 0C448.284 0 455 6.71573 455 15ZM520 30C528.284 30 535 23.2843 535 15C535 6.71573 528.284 0 520 0C511.716 0 505 6.71573 505 15C505 23.2843 511.716 30 520 30ZM615 15C615 23.2843 608.284 30 600 30C591.716 30 585 23.2843 585 15C585 6.71573 591.716 0 600 0C608.284 0 615 6.71573 615 15ZM680 30C688.284 30 695 23.2843 695 15C695 6.71573 688.284 0 680 0C671.716 0 665 6.71573 665 15C665 23.2843 671.716 30 680 30ZM720 30C728.284 30 735 23.2843 735 15C735 6.71573 728.284 0 720 0C711.716 0 705 6.71573 705 15C705 23.2843 711.716 30 720 30ZM800 30C808.284 30 815 23.2843 815 15C815 6.71573 808.284 0 800 0C791.716 0 785 6.71573 785 15C785 23.2843 791.716 30 800 30ZM895 15C895 23.2843 888.284 30 880 30C871.716 30 865 23.2843 865 15C865 6.71573 871.716 0 880 0C888.284 0 895 6.71573 895 15ZM960 30C968.284 30 975 23.2843 975 15C975 6.71573 968.284 0 960 0C951.716 0 945 6.71573 945 15C945 23.2843 951.716 30 960 30ZM1055 15C1055 23.2843 1048.28 30 1040 30C1031.72 30 1025 23.2843 1025 15C1025 6.71573 1031.72 0 1040 0C1048.28 0 1055 6.71573 1055 15ZM760 30C768.284 30 775 23.2843 775 15C775 6.71573 768.284 0 760 0C751.716 0 745 6.71573 745 15C745 23.2843 751.716 30 760 30ZM855 15C855 23.2843 848.284 30 840 30C831.716 30 825 23.2843 825 15C825 6.71573 831.716 0 840 0C848.284 0 855 6.71573 855 15ZM920 30C928.284 30 935 23.2843 935 15C935 6.71573 928.284 0 920 0C911.716 0 905 6.71573 905 15C905 23.2843 911.716 30 920 30ZM1015 15C1015 23.2843 1008.28 30 1000 30C991.716 30 985 23.2843 985 15C985 6.71573 991.716 0 1000 0C1008.28 0 1015 6.71573 1015 15ZM1080 30C1088.28 30 1095 23.2843 1095 15C1095 6.71573 1088.28 0 1080 0C1071.72 0 1065 6.71573 1065 15C1065 23.2843 1071.72 30 1080 30ZM1135 15C1135 23.2843 1128.28 30 1120 30C1111.72 30 1105 23.2843 1105 15C1105 6.71573 1111.72 0 1120 0C1128.28 0 1135 6.71573 1135 15ZM1215 15C1215 23.2843 1208.28 30 1200 30C1191.72 30 1185 23.2843 1185 15C1185 6.71573 1191.72 0 1200 0C1208.28 0 1215 6.71573 1215 15ZM1280 30C1288.28 30 1295 23.2843 1295 15C1295 6.71573 1288.28 0 1280 0C1271.72 0 1265 6.71573 1265 15C1265 23.2843 1271.72 30 1280 30ZM1375 15C1375 23.2843 1368.28 30 1360 30C1351.72 30 1345 23.2843 1345 15C1345 6.71573 1351.72 0 1360 0C1368.28 0 1375 6.71573 1375 15ZM1440 30C1448.28 30 1455 23.2843 1455 15C1455 6.71573 1448.28 0 1440 0C1431.72 0 1425 6.71573 1425 15C1425 23.2843 1431.72 30 1440 30ZM1175 15C1175 23.2843 1168.28 30 1160 30C1151.72 30 1145 23.2843 1145 15C1145 6.71573 1151.72 0 1160 0C1168.28 0 1175 6.71573 1175 15ZM1240 30C1248.28 30 1255 23.2843 1255 15C1255 6.71573 1248.28 0 1240 0C1231.72 0 1225 6.71573 1225 15C1225 23.2843 1231.72 30 1240 30ZM1335 15C1335 23.2843 1328.28 30 1320 30C1311.72 30 1305 23.2843 1305 15C1305 6.71573 1311.72 0 1320 0C1328.28 0 1335 6.71573 1335 15ZM1400 30C1408.28 30 1415 23.2843 1415 15C1415 6.71573 1408.28 0 1400 0C1391.72 0 1385 6.71573 1385 15C1385 23.2843 1391.72 30 1400 30ZM1495 15C1495 23.2843 1488.28 30 1480 30C1471.72 30 1465 23.2843 1465 15C1465 6.71573 1471.72 0 1480 0C1488.28 0 1495 6.71573 1495 15ZM1535 15C1535 23.2843 1528.28 30 1520 30C1511.72 30 1505 23.2843 1505 15C1505 6.71573 1511.72 0 1520 0C1528.28 0 1535 6.71573 1535 15ZM1615 15C1615 23.2843 1608.28 30 1600 30C1591.72 30 1585 23.2843 1585 15C1585 6.71573 1591.72 0 1600 0C1608.28 0 1615 6.71573 1615 15ZM1680 30C1688.28 30 1695 23.2843 1695 15C1695 6.71573 1688.28 0 1680 0C1671.72 0 1665 6.71573 1665 15C1665 23.2843 1671.72 30 1680 30ZM1775 15C1775 23.2843 1768.28 30 1760 30C1751.72 30 1745 23.2843 1745 15C1745 6.71573 1751.72 0 1760 0C1768.28 0 1775 6.71573 1775 15ZM1840 30C1848.28 30 1855 23.2843 1855 15C1855 6.71573 1848.28 0 1840 0C1831.72 0 1825 6.71573 1825 15C1825 23.2843 1831.72 30 1840 30ZM1575 15C1575 23.2843 1568.28 30 1560 30C1551.72 30 1545 23.2843 1545 15C1545 6.71573 1551.72 0 1560 0C1568.28 0 1575 6.71573 1575 15ZM1640 30C1648.28 30 1655 23.2843 1655 15C1655 6.71573 1648.28 0 1640 0C1631.72 0 1625 6.71573 1625 15C1625 23.2843 1631.72 30 1640 30ZM1735 15C1735 23.2843 1728.28 30 1720 30C1711.72 30 1705 23.2843 1705 15C1705 6.71573 1711.72 0 1720 0C1728.28 0 1735 6.71573 1735 15ZM1800 30C1808.28 30 1815 23.2843 1815 15C1815 6.71573 1808.28 0 1800 0C1791.72 0 1785 6.71573 1785 15C1785 23.2843 1791.72 30 1800 30ZM1895 15C1895 23.2843 1888.28 30 1880 30C1871.72 30 1865 23.2843 1865 15C1865 6.71573 1871.72 0 1880 0C1888.28 0 1895 6.71573 1895 15Z"/>
	</symbol>
</svg>
